<?xml version="1.0" encoding="UTF-8"?>
<!-- Generated by Pixelmator Pro 2.4.3 -->
<svg width="24" height="24" viewBox="0 0 24 24" xmlns="http://www.w3.org/2000/svg" xmlns:xlink="http://www.w3.org/1999/xlink">
    <path id="Ellipse" fill="#0e0066" fill-rule="evenodd" stroke="none" d="M 23.75 12.25 C 23.75 5.760654 18.489346 0.5 12 0.5 C 5.510654 0.5 0.25 5.760654 0.25 12.25 C 0.25 18.739346 5.510654 24 12 24 C 18.489346 24 23.75 18.739346 23.75 12.25 Z"/>
    <path id="download-copy" fill="#fbfbfd" stroke="none" d="M 9.755021 17.674526 L 5.205017 13.138232 C 4.931661 12.8657 4.931661 12.42382 5.205017 12.15126 L 6.194943 11.164289 C 6.468299 10.891731 6.911542 10.891731 7.184897 11.164289 L 10.249998 14.220127 L 16.815102 7.674833 C 17.088457 7.4023 17.5317 7.4023 17.805056 7.674833 L 18.794983 8.661803 C 19.068338 8.934336 19.068338 9.376215 18.794983 9.648775 L 10.744975 17.674553 C 10.471592 17.947086 10.028377 17.947086 9.755021 17.674526 Z"/>
</svg>
