<?xml version="1.0" encoding="UTF-8"?>
<!-- Generated by Pixelmator Pro 3.2.3 -->
<svg width="1362" height="542" viewBox="0 0 1362 542" xmlns="http://www.w3.org/2000/svg" xmlns:xlink="http://www.w3.org/1999/xlink">
    <g id="driff-copy">
        <g id="b">
            <g id="c">
                <g id="Group">
                    <path id="Path" fill="#ffffff" stroke="none" d="M 460.98819 304.906128 C 460.98819 437.584045 373.075562 520.10321 220.981369 520.10321 L 12.795707 520.10321 C 32.211987 512.55249 38.144737 481.810059 38.144737 449.449554 L 38.144737 159.823395 C 38.144737 127.462921 32.211987 97.259827 12.795707 88.630341 L 219.902679 88.630341 C 372.536224 89.169708 460.98819 170.610229 460.98819 303.827454 L 460.98819 303.827454 Z M 345.029816 305.445496 C 345.029816 283.33252 345.029816 106.967957 218.824005 106.967957 L 154.642426 106.967957 L 154.642426 502.84433 L 219.363342 502.84433 C 345.029816 502.84433 345.029816 326.479797 345.029816 305.445496 Z"/>
                    <path id="path1" fill="#ffffff" stroke="none" d="M 648.139526 179.779022 C 629.262634 214.836182 612.003662 258.522827 595.823486 314.074951 L 595.823486 459.697021 C 597.980835 488.282135 604.452942 513.631104 621.172485 520.642578 L 468.53894 520.642578 C 485.258514 513.631104 491.730621 488.282135 492.269958 459.697021 L 492.269958 290.883301 C 492.269958 263.916229 479.865082 221.308289 460.448822 213.21817 C 460.448822 213.21817 552.136841 221.847626 595.823486 187.86911 L 595.823486 256.365479 C 619.554443 187.86911 646.521484 140.407135 676.185303 112.361359 C 702.073608 86.472992 730.119385 76.225525 757.625793 78.922241 C 788.907593 82.158264 810.481201 108.585999 810.481201 137.171082 C 810.481201 168.992188 784.053467 195.419922 752.232361 195.419922 C 720.411255 195.419922 702.612976 170.070862 697.758911 157.126678 C 686.972107 134.474365 659.465698 159.284058 648.139526 179.779022 Z M 832.594177 520.642578 L 679.421265 520.642578 C 698.837585 513.091858 704.770325 481.810059 704.770325 448.910217 L 704.770325 313.535583 C 704.770325 286.568542 691.286804 243.960602 671.870544 235.870483 C 671.870544 235.870483 764.0979 245.578613 808.323853 210.521454 L 808.323853 459.697021 C 808.863159 488.282135 815.874634 513.631104 833.133545 520.642578 Z"/>
                    <path id="path2" fill="#ffffff" stroke="none" d="M 1346.586182 110.743347 C 1346.586182 136.092377 1334.181396 162.520111 1300.203003 162.520111 C 1274.314575 162.520111 1252.740845 142.025116 1252.740845 116.676117 C 1252.740845 98.877838 1262.449097 84.315613 1275.393188 76.225525 C 1305.596313 59.50592 1288.876709 37.392944 1248.426147 37.392944 C 1207.975586 37.392944 1179.390503 78.382874 1179.390503 213.21817 L 1255.976929 213.21817 L 1255.976929 226.162354 L 1179.390503 226.162354 L 1179.390503 459.697021 C 1181.547852 488.282135 1186.941284 513.631104 1204.739624 520.642578 L 1051.027344 520.642578 C 1070.443604 513.091858 1076.376343 481.810059 1076.376343 448.910217 L 1076.376343 226.162354 L 963.654053 226.162354 L 963.654053 459.697021 C 964.732727 488.282135 972.283569 513.631104 989.003113 520.642578 L 835.290894 520.642578 C 854.707153 513.091858 860.639954 481.810059 860.639954 448.910217 L 860.639954 226.162354 L 835.290894 226.162354 L 835.290894 213.21817 L 860.639954 213.21817 L 860.639954 202.431335 C 860.639954 67.056732 934.529663 22.83075 1012.734192 22.83075 C 1073.140259 22.83075 1102.804077 42.786377 1116.826904 64.360016 C 1143.254639 34.696228 1179.390503 22.83075 1219.301758 22.83075 C 1330.945435 22.83075 1348.204346 86.472992 1348.204346 111.282684 Z M 1075.297729 212.678802 L 1075.297729 201.891998 C 1075.297729 144.721832 1087.163208 103.731903 1106.579468 75.14682 C 1094.713989 55.191193 1070.443604 36.853607 1039.701172 36.853607 C 998.711304 36.853607 963.114807 77.843536 962.575439 212.678802 L 1075.297729 212.678802 Z"/>
                </g>
            </g>
        </g>
    </g>
</svg>
